<?xml version="1.0" standalone="yes"?>

<svg version="1.1" viewBox="0.0 0.0 960.0 720.0" fill="none" stroke="none" stroke-linecap="square" stroke-miterlimit="10" xmlns="http://www.w3.org/2000/svg" xmlns:xlink="http://www.w3.org/1999/xlink"><clipPath id="p.0"><path d="m0 0l960.0 0l0 720.0l-960.0 0l0 -720.0z" clip-rule="nonzero"></path></clipPath><g clip-path="url(#p.0)"><path fill="#000000" fill-opacity="0.0" d="m0 0l960.0 0l0 720.0l-960.0 0z" fill-rule="nonzero"></path><path fill="#cfe2f3" d="m139.16536 360.0l0 0c0 -188.23778 152.59688 -340.83466 340.83466 -340.83466l0 0c90.39496 0 177.08759 35.909264 241.00647 99.828156c63.918884 63.91889 99.828186 150.61154 99.828186 241.0065l0 0c0 188.2378 -152.59686 340.83466 -340.83466 340.83466l0 0c-188.23776 0 -340.83466 -152.59686 -340.83466 -340.83466z" fill-rule="nonzero"></path><path stroke="#000000" stroke-width="2.0" stroke-linejoin="round" stroke-linecap="butt" d="m139.16536 360.0l0 0c0 -188.23778 152.59688 -340.83466 340.83466 -340.83466l0 0c90.39496 0 177.08759 35.909264 241.00647 99.828156c63.918884 63.91889 99.828186 150.61154 99.828186 241.0065l0 0c0 188.2378 -152.59686 340.83466 -340.83466 340.83466l0 0c-188.23776 0 -340.83466 -152.59686 -340.83466 -340.83466z" fill-rule="nonzero"></path><path fill="#cccccc" d="m416.80316 360.0l0 0c0 -34.90265 28.29419 -63.19684 63.19684 -63.19684l0 0c16.760834 0 32.835205 6.658203 44.68695 18.509918c11.851685 11.851715 18.509888 27.926086 18.509888 44.68692l0 0c0 34.90265 -28.29419 63.19684 -63.19684 63.19684l0 0c-34.90265 0 -63.19684 -28.29419 -63.19684 -63.19684z" fill-rule="nonzero"></path><path stroke="#000000" stroke-width="2.0" stroke-linejoin="round" stroke-linecap="butt" d="m416.80316 360.0l0 0c0 -34.90265 28.29419 -63.19684 63.19684 -63.19684l0 0c16.760834 0 32.835205 6.658203 44.68695 18.509918c11.851685 11.851715 18.509888 27.926086 18.509888 44.68692l0 0c0 34.90265 -28.29419 63.19684 -63.19684 63.19684l0 0c-34.90265 0 -63.19684 -28.29419 -63.19684 -63.19684z" fill-rule="nonzero"></path><path fill="#000000" d="m543.19684 353.6063l149.10236 0l0 -6.3937073l12.787415 12.787415l-12.787415 12.787415l0 -6.3937073l-149.10236 0z" fill-rule="nonzero"></path><path stroke="#000000" stroke-width="2.0" stroke-linejoin="round" stroke-linecap="butt" d="m543.19684 353.6063l149.10236 0l0 -6.3937073l12.787415 12.787415l-12.787415 12.787415l0 -6.3937073l-149.10236 0z" fill-rule="nonzero"></path><path fill="#000000" d="m516.09076 305.7336l119.42151 -89.25429l-3.8267822 -5.125992l17.901367 2.592865l-2.5942993 17.911072l-3.8267212 -5.1259766l-119.42151 89.25427z" fill-rule="nonzero"></path><path stroke="#000000" stroke-width="2.0" stroke-linejoin="round" stroke-linecap="butt" d="m516.09076 305.7336l119.42151 -89.25429l-3.8267822 -5.125992l17.901367 2.592865l-2.5942993 17.911072l-3.8267212 -5.1259766l-119.42151 89.25427z" fill-rule="nonzero"></path><path fill="#000000" fill-opacity="0.0" d="m454.43832 38.343834l61.66928 0l0 72.40945l-61.66928 0z" fill-rule="nonzero"></path><path fill="#000000" d="m488.29642 78.063835l-2.8125 0l0 -17.921875q-1.015625 0.96875 -2.671875 1.9375q-1.640625 0.96875 -2.953125 1.453125l0 -2.71875q2.359375 -1.109375 4.125 -2.6875q1.765625 -1.578125 2.5 -3.0625l1.8125 0l0 23.0z" fill-rule="nonzero"></path><path fill="#000000" fill-opacity="0.0" d="m593.30707 68.54593l61.66931 0l0 72.409454l-61.66931 0z" fill-rule="nonzero"></path><path fill="#000000" d="m625.58704 108.26593l0 -5.484375l-9.9375 0l0 -2.578125l10.453125 -14.84375l2.296875 0l0 14.84375l3.09375 0l0 2.578125l-3.09375 0l0 5.484375l-2.8125 0zm0 -8.0625l0 -10.328125l-7.171875 10.328125l7.171875 0z" fill-rule="nonzero"></path><path fill="#000000" fill-opacity="0.0" d="m676.1417 481.4908l61.66931 0l0 72.409454l-61.66931 0z" fill-rule="nonzero"></path><path fill="#000000" d="m714.1873 518.5077l0 2.703125l-15.140625 0q-0.03125 -1.015625 0.328125 -1.953125q0.578125 -1.546875 1.84375 -3.046875q1.28125 -1.5 3.6875 -3.46875q3.734375 -3.0625 5.046875 -4.84375q1.3125 -1.796875 1.3125 -3.390625q0 -1.671875 -1.203125 -2.8125q-1.1875 -1.15625 -3.109375 -1.15625q-2.03125 0 -3.25 1.21875q-1.21875 1.21875 -1.234375 3.375l-2.890625 -0.296875q0.296875 -3.234375 2.234375 -4.921875q1.9375 -1.703125 5.203125 -1.703125q3.296875 0 5.21875 1.828125q1.921875 1.828125 1.921875 4.53125q0 1.375 -0.5625 2.703125q-0.5625 1.328125 -1.875 2.796875q-1.296875 1.46875 -4.328125 4.03125q-2.53125 2.125 -3.25 2.890625q-0.71875 0.75 -1.1875 1.515625l11.234375 0z" fill-rule="nonzero"></path><path fill="#000000" fill-opacity="0.0" d="m683.9869 151.89764l61.66931 0l0 72.40944l-61.66931 0z" fill-rule="nonzero"></path><path fill="#000000" d="m707.2512 185.61765l2.953125 -0.25q0.328125 2.15625 1.515625 3.25q1.203125 1.078125 2.890625 1.078125q2.03125 0 3.4375 -1.53125q1.40625 -1.53125 1.40625 -4.0625q0 -2.40625 -1.359375 -3.796875q-1.34375 -1.390625 -3.53125 -1.390625q-1.359375 0 -2.453125 0.625q-1.09375 0.609375 -1.71875 1.59375l-2.640625 -0.34375l2.21875 -11.765625l11.390625 0l0 2.6875l-9.140625 0l-1.234375 6.15625q2.0625 -1.4375 4.328125 -1.4375q3.0 0 5.0625 2.078125q2.0625 2.078125 2.0625 5.34375q0 3.109375 -1.8125 5.375q-2.203125 2.78125 -6.015625 2.78125q-3.125 0 -5.109375 -1.75q-1.96875 -1.75 -2.25 -4.640625z" fill-rule="nonzero"></path><path fill="#000000" fill-opacity="0.0" d="m745.6562 323.7953l61.66925 0l0 72.409424l-61.66925 0z" fill-rule="nonzero"></path><path fill="#000000" d="m768.9361 357.4684l2.8125 -0.375q0.484375 2.390625 1.640625 3.453125q1.171875 1.046875 2.84375 1.046875q1.984436 0 3.343811 -1.375q1.375 -1.375 1.375 -3.40625q0 -1.9375 -1.265625 -3.1875q-1.265625 -1.265625 -3.218811 -1.265625q-0.796875 0 -1.984375 0.3125l0.3125 -2.46875q0.28125 0.03125 0.453125 0.03125q1.796875 0 3.234436 -0.9375q1.4375 -0.9375 1.4375 -2.890625q0 -1.546875 -1.046875 -2.5625q-1.046875 -1.015625 -2.703186 -1.015625q-1.640625 0 -2.734375 1.03125q-1.09375 1.03125 -1.40625 3.09375l-2.8125 -0.5q0.515625 -2.828125 2.34375 -4.375q1.828125 -1.5625 4.546875 -1.5625q1.875061 0 3.453186 0.8125q1.578125 0.796875 2.40625 2.1875q0.84375 1.390625 0.84375 2.953125q0 1.484375 -0.796875 2.703125q-0.796875 1.21875 -2.359375 1.9375q2.03125 0.46875 3.15625 1.953125q1.125 1.46875 1.125 3.6875q0 3.0 -2.1875 5.09375q-2.1875 2.078125 -5.531311 2.078125q-3.015625 0 -5.015625 -1.796875q-1.984375 -1.796875 -2.265625 -4.65625z" fill-rule="nonzero"></path><path fill="#000000" fill-opacity="0.0" d="m591.7507 564.2598l61.66925 0l0 72.409485l-61.66925 0z" fill-rule="nonzero"></path><path fill="#000000" d="m629.60876 586.683l-2.796875 0.21875q-0.375 -1.65625 -1.0625 -2.40625q-1.140625 -1.203125 -2.8125 -1.203125q-1.34375 0 -2.359375 0.75q-1.328125 0.96875 -2.09375 2.828125q-0.765625 1.859375 -0.796875 5.296875q1.015625 -1.546875 2.484375 -2.296875q1.46875 -0.75 3.078125 -0.75q2.8125 0 4.78125 2.078125q1.984375 2.0625 1.984375 5.34375q0 2.15625 -0.9375 4.015625q-0.921875 1.84375 -2.546875 2.828125q-1.625 0.984375 -3.6875 0.984375q-3.515625 0 -5.734375 -2.578125q-2.21875 -2.59375 -2.21875 -8.53125q0 -6.640625 2.453125 -9.65625q2.140625 -2.625 5.765625 -2.625q2.703125 0 4.421875 1.515625q1.734375 1.515625 2.078125 4.1875zm-11.484375 9.875q0 1.453125 0.609375 2.78125q0.625 1.328125 1.734375 2.03125q1.109375 0.6875 2.328125 0.6875q1.78125 0 3.0625 -1.4375q1.28125 -1.4375 1.28125 -3.90625q0 -2.375 -1.265625 -3.734375q-1.265625 -1.375 -3.1875 -1.375q-1.90625 0 -3.234375 1.375q-1.328125 1.359375 -1.328125 3.578125z" fill-rule="nonzero"></path><path fill="#000000" fill-opacity="0.0" d="m454.43832 609.2467l61.66928 0l0 72.409485l-61.66928 0z" fill-rule="nonzero"></path><path fill="#000000" d="m479.39798 648.96674l-2.8125 0l0 -17.921875q-1.015625 0.96875 -2.671875 1.9375q-1.640625 0.96875 -2.953125 1.453125l0 -2.71875q2.359375 -1.109375 4.125 -2.6875q1.765625 -1.578125 2.5 -3.0625l1.8125 0l0 23.0zm7.203125 -11.296875q0 -4.0625 0.828125 -6.53125q0.84375 -2.484375 2.484375 -3.828125q1.65625 -1.34375 4.15625 -1.34375q1.84375 0 3.234375 0.75q1.390625 0.734375 2.296875 2.140625q0.90625 1.390625 1.421875 3.40625q0.515625 2.0 0.515625 5.40625q0 4.03125 -0.828125 6.515625q-0.828125 2.46875 -2.484375 3.828125q-1.640625 1.34375 -4.15625 1.34375q-3.3125 0 -5.203125 -2.375q-2.265625 -2.859375 -2.265625 -9.3125zm2.890625 0q0 5.640625 1.3125 7.515625q1.328125 1.859375 3.265625 1.859375q1.9375 0 3.25 -1.875q1.328125 -1.875 1.328125 -7.5q0 -5.65625 -1.328125 -7.515625q-1.3125 -1.859375 -3.28125 -1.859375q-1.9375 0 -3.09375 1.640625q-1.453125 2.09375 -1.453125 7.734375z" fill-rule="nonzero"></path><path fill="#000000" fill-opacity="0.0" d="m296.61417 553.90027l61.66931 0l0 72.409424l-61.66931 0z" fill-rule="nonzero"></path><path fill="#000000" d="m320.30038 588.32336l2.703125 -0.25q0.34375 1.90625 1.3125 2.765625q0.96875 0.859375 2.484375 0.859375q1.296875 0 2.265625 -0.59375q0.984375 -0.59375 1.609375 -1.578125q0.625 -1.0 1.046875 -2.6875q0.421875 -1.6875 0.421875 -3.4375q0 -0.1875 -0.015625 -0.5625q-0.84375 1.34375 -2.3125 2.1875q-1.453125 0.828125 -3.15625 0.828125q-2.84375 0 -4.8125 -2.0625q-1.96875 -2.0625 -1.96875 -5.4375q0 -3.484375 2.046875 -5.609375q2.0625 -2.125 5.15625 -2.125q2.234375 0 4.078125 1.203125q1.859375 1.203125 2.8125 3.4375q0.96875 2.21875 0.96875 6.4375q0 4.390625 -0.953125 7.0q-0.953125 2.59375 -2.84375 3.953125q-1.875 1.359375 -4.40625 1.359375q-2.6875 0 -4.390625 -1.484375q-1.703125 -1.5 -2.046875 -4.203125zm11.515625 -10.109375q0 -2.421875 -1.296875 -3.84375q-1.28125 -1.421875 -3.09375 -1.421875q-1.875 0 -3.265625 1.53125q-1.390625 1.53125 -1.390625 3.96875q0 2.1875 1.3125 3.5625q1.328125 1.359375 3.265625 1.359375q1.953125 0 3.203125 -1.359375q1.265625 -1.375 1.265625 -3.796875z" fill-rule="nonzero"></path><path fill="#000000" fill-opacity="0.0" d="m204.68767 471.66928l61.669296 0l0 72.409454l-61.669296 0z" fill-rule="nonzero"></path><path fill="#000000" d="m228.1395 491.48303l0 -2.703125l14.828125 0l0 2.1875q-2.1875 2.328125 -4.34375 6.1875q-2.140625 3.859375 -3.3125 7.9375q-0.84375 2.875 -1.078125 6.296875l-2.890625 0q0.046875 -2.703125 1.0625 -6.53125q1.015625 -3.828125 2.90625 -7.375q1.90625 -3.5625 4.046875 -6.0l-11.21875 0z" fill-rule="nonzero"></path><path fill="#000000" fill-opacity="0.0" d="m161.04199 323.7953l61.669296 0l0 72.409424l-61.669296 0z" fill-rule="nonzero"></path><path fill="#000000" d="m188.63446 351.0934q-1.75 -0.640625 -2.59375 -1.828125q-0.84375 -1.1875 -0.84375 -2.84375q0 -2.5 1.796875 -4.203125q1.796875 -1.703125 4.78125 -1.703125q3.0 0 4.828125 1.75q1.828125 1.734375 1.828125 4.234375q0 1.59375 -0.84375 2.78125q-0.828125 1.171875 -2.53125 1.8125q2.109375 0.6875 3.203125 2.21875q1.109375 1.53125 1.109375 3.65625q0 2.9375 -2.078125 4.9375q-2.078125 2.0 -5.46875 2.0q-3.390625 0 -5.46875 -2.0q-2.078125 -2.015625 -2.078125 -5.015625q0 -2.234375 1.125 -3.734375q1.140625 -1.515625 3.234375 -2.0625zm-0.5625 -4.765625q0 1.625 1.046875 2.65625q1.046875 1.03125 2.71875 1.03125q1.625 0 2.65625 -1.015625q1.046875 -1.03125 1.046875 -2.515625q0 -1.546875 -1.078125 -2.59375q-1.0625 -1.0625 -2.65625 -1.0625q-1.609375 0 -2.671875 1.03125q-1.0625 1.03125 -1.0625 2.46875zm-0.90625 10.578125q0 1.203125 0.5625 2.328125q0.578125 1.125 1.703125 1.75q1.125 0.609375 2.421875 0.609375q2.015625 0 3.328125 -1.296875q1.3125 -1.296875 1.3125 -3.296875q0 -2.03125 -1.359375 -3.359375q-1.34375 -1.328125 -3.375 -1.328125q-1.984375 0 -3.296875 1.3125q-1.296875 1.3125 -1.296875 3.28125z" fill-rule="nonzero"></path><path fill="#000000" fill-opacity="0.0" d="m204.68767 175.92126l61.669296 0l0 72.40944l-61.669296 0z" fill-rule="nonzero"></path><path fill="#000000" d="m229.64731 215.64127l-2.8125 0l0 -17.921875q-1.015625 0.96875 -2.671875 1.9375q-1.640625 0.96875 -2.953125 1.453125l0 -2.71875q2.359375 -1.109375 4.125 -2.6875q1.765625 -1.578125 2.5 -3.0625l1.8125 0l0 23.0zm21.984375 -2.703125l0 2.703125l-15.140625 0q-0.03125 -1.015625 0.328125 -1.953125q0.578125 -1.546875 1.84375 -3.046875q1.28125 -1.5 3.6875 -3.46875q3.734375 -3.0625 5.046875 -4.84375q1.3125 -1.796875 1.3125 -3.390625q0 -1.671875 -1.203125 -2.8125q-1.1875 -1.15625 -3.109375 -1.15625q-2.03125 0 -3.25 1.21875q-1.21875 1.21875 -1.234375 3.375l-2.890625 -0.296875q0.296875 -3.234375 2.234375 -4.921875q1.9375 -1.703125 5.203125 -1.703125q3.296875 0 5.21875 1.828125q1.921875 1.828125 1.921875 4.53125q0 1.375 -0.5625 2.703125q-0.5625 1.328125 -1.875 2.796875q-1.296875 1.46875 -4.328125 4.03125q-2.53125 2.125 -3.25 2.890625q-0.71875 0.75 -1.1875 1.515625l11.234375 0z" fill-rule="nonzero"></path><path fill="#000000" fill-opacity="0.0" d="m296.61417 68.54593l61.66931 0l0 72.409454l-61.66931 0z" fill-rule="nonzero"></path><path fill="#000000" d="m321.57382 108.26593l-2.8125 0l0 -17.921875q-1.015625 0.96875 -2.671875 1.9375q-1.640625 0.96875 -2.953125 1.453125l0 -2.71875q2.359375 -1.109375 4.125 -2.6875q1.765625 -1.578125 2.5 -3.0625l1.8125 0l0 23.0zm17.796875 0l-2.8125 0l0 -17.921875q-1.015625 0.96875 -2.671875 1.9375q-1.640625 0.96875 -2.953125 1.453125l0 -2.71875q2.359375 -1.109375 4.125 -2.6875q1.765625 -1.578125 2.5 -3.0625l1.8125 0l0 23.0z" fill-rule="nonzero"></path><path fill="#000000" fill-opacity="0.0" d="m441.65616 325.20734l70.61417 0l0 72.409454l-70.61417 0z" fill-rule="nonzero"></path><path fill="#000000" d="m487.84998 368.24048l4.546875 1.140625q-1.421875 5.609375 -5.140625 8.5625q-3.71875 2.9375 -9.078125 2.9375q-5.5625 0 -9.046875 -2.265625q-3.46875 -2.265625 -5.296875 -6.546875q-1.8125 -4.296875 -1.8125 -9.21875q0 -5.375 2.046875 -9.359375q2.0625 -4.0 5.84375 -6.078125q3.78125 -2.078125 8.328125 -2.078125q5.15625 0 8.671875 2.625q3.515625 2.625 4.90625 7.390625l-4.484375 1.046875q-1.1875 -3.75 -3.46875 -5.453125q-2.265625 -1.71875 -5.71875 -1.71875q-3.953125 0 -6.625 1.90625q-2.65625 1.890625 -3.734375 5.09375q-1.078125 3.203125 -1.078125 6.59375q0 4.390625 1.28125 7.65625q1.28125 3.265625 3.96875 4.890625q2.703125 1.609375 5.84375 1.609375q3.8125 0 6.453125 -2.203125q2.65625 -2.203125 3.59375 -6.53125z" fill-rule="nonzero"></path></g></svg>

